<svg xmlns="http://www.w3.org/2000/svg" viewBox="-57.50 -98.20 282.10 154.10" width="100%" height="100%">
    <path d="M8.80 -42.10Q7.00 -34.20 7.00 -28.20Q7.00 -23.50 8.20 -21.30Q9.90 -18.20 14.30 -18.20Q17.70 -18.20 22.10 -21.00Q24.00 -22.20 26.00 -24.00Q26.30 -25.00 26.30 -28.60Q26.30 -29.90 26.20 -32.55Q26.10 -35.20 26.10 -36.50Q26.10 -39.60 26.40 -42.10ZM36.20 -2.10Q36.20 0.40 33.50 0.40Q31.20 0.40 29.20 -1.80Q26.00 -5.40 26.00 -15.40Q21.20 -11.90 15.70 -11.90Q11.10 -11.90 7.30 -14.50Q3.20 -17.30 2.00 -21.50Q1.00 -25.10 1.00 -29.50Q1.00 -34.30 2.40 -42.10Q1.90 -42.10 1.00 -42.10Q0.10 -42.00 -0.30 -42.00Q-5.10 -42.00 -5.10 -45.30Q-5.10 -46.30 -4.30 -47.25Q-3.50 -48.20 -2.50 -48.20L40.40 -48.20Q43.90 -48.20 43.90 -44.80Q43.90 -42.10 41.20 -42.10L32.50 -42.10Q32.10 -37.20 32.10 -24.00Q32.10 -14.90 33.40 -10.10Q33.60 -9.50 35.00 -6.00Q36.20 -3.20 36.20 -2.10ZM27.80 -18.30Q27.30 -13.40 27.30 -13.10Q27.30 -12.10 23.60 -8.60L23.50 -8.60Q14.40 0.00 1.50 4.70Q-1.70 5.90 -3.10 5.90Q-4.70 5.90 -6.10 4.70Q-7.50 3.50 -7.50 1.90Q-7.50 0.40 -4.80 -0.80Q-2.80 -1.50 -0.70 -2.20Q4.30 -4.00 6.10 -4.80Q9.90 -6.40 12.60 -8.20Q16.60 -11.00 20.50 -13.80Q26.70 -18.10 27.80 -18.30ZM74.70 -42.10L39.50 -42.10Q38.30 -42.10 37.35 -43.05Q36.40 -44.00 36.40 -45.30Q36.40 -46.30 37.20 -47.25Q38.00 -48.20 39.00 -48.20L73.90 -48.20Q77.40 -48.20 77.40 -44.80Q77.40 -42.10 74.70 -42.10ZM78.90 -29.80L78.50 -23.70Q77.90 -23.70 76.55 -23.50Q75.20 -23.30 74.50 -23.30Q70.60 -23.30 68.70 -23.90Q68.90 -21.10 68.90 -20.70L68.80 -20.30L68.80 -20.10L68.80 -20.00L68.80 -20.00Q68.90 -14.80 65.00 -11.70Q61.50 -8.90 56.00 -8.90Q49.90 -8.90 45.45 -13.60Q41.00 -18.30 41.00 -24.50Q41.00 -27.90 42.60 -30.80Q44.60 -34.30 47.70 -34.30Q49.30 -34.30 50.00 -33.40Q50.10 -33.30 51.00 -31.20Q50.90 -30.70 50.40 -29.00Q47.40 -24.70 47.40 -22.60Q47.40 -19.40 49.55 -17.35Q51.70 -15.30 54.80 -15.30Q63.10 -15.30 63.10 -21.50Q63.10 -23.10 62.60 -24.90Q61.90 -24.90 60.90 -25.50Q56.70 -28.10 56.70 -32.10Q56.70 -34.80 60.00 -34.80Q61.90 -34.80 64.00 -33.25Q66.10 -31.70 66.70 -29.80Q67.70 -29.40 70.00 -29.40Q70.60 -29.40 72.00 -29.50Q73.30 -29.50 74.00 -29.50Q74.10 -29.50 74.50 -29.50Q74.80 -29.40 74.90 -29.40Q76.20 -29.40 78.90 -29.80ZM110.40 -1.70Q110.40 0.40 107.10 0.40Q103.70 0.40 101.70 -5.00Q100.30 -8.70 100.00 -13.30Q95.20 -11.30 92.20 -11.30Q85.90 -11.30 80.60 -14.90Q74.60 -18.90 74.60 -25.00Q74.60 -29.50 80.50 -32.40Q85.40 -34.80 90.50 -34.80L91.80 -34.80Q100.40 -34.80 100.40 -30.40Q100.40 -28.50 97.50 -28.50Q96.70 -28.50 95.10 -28.60Q93.50 -28.70 92.70 -28.70Q80.40 -28.70 80.40 -24.00Q80.40 -21.00 83.70 -18.90Q86.60 -17.00 89.70 -17.00Q93.60 -17.00 100.00 -21.20L100.30 -28.20Q100.40 -32.80 100.50 -42.10L74.20 -42.10Q73.00 -42.10 72.05 -43.05Q71.10 -44.00 71.10 -45.30Q71.10 -46.30 71.90 -47.25Q72.70 -48.20 73.70 -48.20L117.60 -48.20Q121.10 -48.20 121.10 -44.80Q121.10 -42.10 118.40 -42.10L106.80 -42.10Q106.80 -35.60 106.40 -22.80Q106.40 -22.40 106.30 -21.50Q106.20 -20.60 106.20 -20.10Q106.20 -15.40 107.70 -10.50Q110.40 -2.10 110.40 -1.70ZM163.90 -1.80Q163.90 0.20 160.80 0.20Q156.90 0.20 154.60 -7.20Q152.90 -12.70 152.90 -18.00Q152.90 -20.50 153.20 -27.80L152.60 -28.50Q152.50 -28.50 152.10 -28.60Q151.70 -28.60 151.50 -28.60Q150.00 -28.60 148.30 -27.30Q147.00 -26.20 145.70 -25.00Q146.60 -21.50 146.60 -18.80Q146.60 -11.90 142.50 -11.00Q141.80 -10.80 140.80 -10.80Q138.90 -10.80 137.40 -14.40Q136.10 -17.50 136.10 -19.70Q136.10 -24.10 139.50 -27.40Q136.90 -30.40 133.60 -30.40Q131.10 -30.40 127.55 -26.45Q124.00 -22.50 124.00 -16.30Q124.00 -9.30 127.20 -6.20Q127.80 -5.70 130.40 -5.10Q133.00 -4.50 133.40 -4.20Q135.00 -2.80 135.00 -0.70Q135.00 0.70 133.30 0.70Q130.80 0.70 127.70 -0.40Q124.20 -1.60 122.60 -3.50Q117.80 -8.90 117.80 -17.50Q117.80 -24.60 121.40 -30.10Q125.50 -36.30 132.30 -36.30Q138.00 -36.30 143.20 -31.30Q145.20 -34.20 149.90 -34.20Q151.30 -34.20 153.40 -33.40Q153.70 -36.30 154.10 -42.10L115.70 -42.10Q114.50 -42.10 113.55 -43.05Q112.60 -44.00 112.60 -45.30Q112.60 -46.30 113.40 -47.25Q114.20 -48.20 115.20 -48.20L171.10 -48.20Q174.60 -48.20 174.60 -44.80Q174.60 -42.10 171.90 -42.10L160.50 -42.10Q159.70 -36.70 159.60 -31.80Q159.50 -27.50 159.10 -22.10L159.30 -22.30Q159.30 -16.80 161.20 -10.70Q163.90 -2.40 163.90 -1.80Z" fill="black" fill-rule="nonzero"  />
</svg>